<?xml version="1.0" encoding="utf-8"?>
<!-- Generator: Adobe Illustrator 18.1.1, SVG Export Plug-In . SVG Version: 6.00 Build 0)  -->
<svg version="1.1" id="レイヤー_1" xmlns="http://www.w3.org/2000/svg" xmlns:xlink="http://www.w3.org/1999/xlink" x="0px"
	 y="0px" viewBox="0 0 38.6 32" enable-background="new 0 0 38.6 32" xml:space="preserve">
<path fill="#0E0000" d="M38.6,2.6c0,0-3.2,0.3-5.6-0.2c0,0-3.8-4.6-10.5-1.2c-4.4,2.2-3.4,8.4-3.4,8.4S9.9,10,2.8,1.3
	c0,0-4,5.7,2.2,10.8c0,0-2.5-0.3-3.4-1c0,0-0.3,6.4,6.3,8.1c0,0-2.1,0.6-3.4,0c0,0,0.9,4.9,7.1,5.9c0,0-4.7,3.8-11.5,3.2
	c0,0,4.9,3.7,12.1,3.7c7.2,0,22.7-3.8,23.3-24.1C35.4,7.9,38.1,4.4,38.6,2.6"/>
</svg>
