<?xml version="1.0" encoding="utf-8"?>
<!-- Generator: Adobe Illustrator 18.1.1, SVG Export Plug-In . SVG Version: 6.00 Build 0)  -->
<svg version="1.1" id="レイヤー_1" xmlns="http://www.w3.org/2000/svg" xmlns:xlink="http://www.w3.org/1999/xlink" x="0px"
	 y="0px" viewBox="0 0 35.5 32" enable-background="new 0 0 35.5 32" xml:space="preserve">
<path fill="#0E0000" d="M2.3,12.8L2.3,12.8C2.4,12.8,2.4,12.8,2.3,12.8c0.2,0,0.5,0,0.8-0.3c0.3-0.4,0.3-1,0-1.8
	C3.8,9.5,5,8.1,6.7,6.8v23.4c-1,0.3-1.5,0.6-1.6,1c-0.1,0.2,0,0.5,0.3,0.8l0,0H12l0,0c0.3-0.3,0.3-0.5,0.3-0.8
	c-0.1-0.4-0.6-0.7-1.6-1v-5.3c0.9,0.3,4.9,1.7,9.1,1.7c4.2,0,8.1-1.3,10.9-3.5c3-2.4,4.7-5.8,4.7-9.5c0-3.7-1.6-7.2-4.4-9.7
	C28.2,1.4,24.2,0,19.8,0C8.2,0,0.1,9,0.1,9.1L0,9.1L2.3,12.8L2.3,12.8z M10.8,4.8c2.1-1.5,5.7-2.5,8.7-2.5h0c3.3,0,6.1,1.2,8.2,3.3
	c1.9,2.1,2.9,4.8,2.9,7.9c0,3-1,5.5-3,7.5c-2,2-4.9,3.1-8,3.1c-3.3,0-6.5-0.6-8.7-1.7V4.8z"/>
</svg>
